<svg width="761" height="733" viewBox="0 0 761 733" fill="none" xmlns="http://www.w3.org/2000/svg">
<path d="M290.489 310.723C181.105 156.644 144.517 45.0896 227.048 3.19384C333.629 -17.9428 338.932 125.233 335.978 281.702L290.489 310.765V310.723Z" fill="#F1EAD5" stroke="#F1EAD5" stroke-miterlimit="10"/>
<path d="M480.85 268.492C388.131 438.13 424.378 573.463 554.177 682.92C640.76 622.11 693.445 545.658 679.658 438.465C658.827 353.08 606.938 298.771 522.854 276.586C509.636 273.105 495.66 270.421 480.85 268.492Z" fill="#F1EAD5" stroke="#F1EAD5" stroke-miterlimit="10"/>
<path d="M592.356 167.212L596.484 171.951C557.51 202.775 528.46 236.871 512.135 275.118L503.121 273.44C521.869 234.229 552.359 199.085 592.356 167.212Z" fill="#F1EAD5" stroke="#F1EAD5" stroke-miterlimit="10"/>
<path d="M381.996 268.492C311.851 440.394 332.038 589.315 451.232 722.341L375.103 731.819C205.459 596.864 206.481 447.062 311.661 288.664L381.996 268.534V268.492Z" fill="#F1EAD5" stroke="#F1EAD5" stroke-miterlimit="10"/>
<path d="M195.233 360.88C149.82 479.774 171.826 592.502 240.986 700.911C182.014 665.39 136.867 619.049 124.709 547C118.308 470.589 146.525 410.828 195.195 360.88H195.233Z" fill="#F1EAD5" stroke="#F1EAD5" stroke-miterlimit="10"/>
<path d="M286.171 355.177C92.8172 323.011 -34.7472 266.982 9.79431 148.592C73.5765 41.0215 181.105 135.633 303.859 300.826L286.133 355.219L286.171 355.177Z" fill="#F1EAD5" stroke="#F1EAD5" stroke-miterlimit="10"/>
<path d="M575.35 326.911C618.15 262.327 669.547 213.344 734.579 189.271L738.101 194.556C674.546 219.634 623.869 265.934 584.175 330.434L575.312 326.911H575.35Z" fill="#F1EAD5" stroke="#F1EAD5" stroke-miterlimit="10"/>
<path d="M590.841 184.574C603.308 184.574 613.415 173.271 613.415 159.328C613.415 145.385 603.308 134.081 590.841 134.081C578.374 134.081 568.268 145.385 568.268 159.328C568.268 173.271 578.374 184.574 590.841 184.574Z" fill="#F1EAD5" stroke="#F1EAD5" stroke-miterlimit="10"/>
<path d="M755.675 202.356C748.251 213.553 734.124 215.902 724.124 207.598C714.125 199.294 712.004 183.484 719.428 172.287C726.852 161.089 740.979 158.741 750.978 167.044C760.977 175.348 763.098 191.158 755.675 202.356Z" fill="#F1EAD5" stroke="#F1EAD5" stroke-miterlimit="10"/>
</svg>
